<?xml version="1.0" encoding="UTF-8"?><svg id="Layer_2" xmlns="http://www.w3.org/2000/svg" viewBox="0 0 191.7 51"><defs><style>.cls-1{fill:#231f20;}.cls-2{fill:#e12722;}</style></defs><g id="Layer_1-2"><path class="cls-1" d="M16.65,48.18l4.89-13.49c.79-2.2,1.97-2.97,3.63-2.97s2.84.77,3.64,2.97l4.86,13.5c.12.35.16.65.16.93,0,.96-.75,1.76-1.81,1.76-.87,0-1.49-.44-1.83-1.47l-1.31-3.82h-7.49l-1.28,3.81c-.33,1.03-.96,1.48-1.83,1.48-1.07,0-1.83-.8-1.83-1.77,0-.25.05-.57.19-.93ZM27.79,42.36l-2.37-6.97c-.08-.2-.15-.29-.31-.29-.15,0-.23.09-.29.29l-2.35,6.97h5.32Z"/><path class="cls-1" d="M36.28,45.32v-7.08c0-1.2.72-1.92,1.81-1.92s1.81.72,1.81,1.92v6.68c0,1.67.84,2.59,2.65,2.59,1,0,1.95-.28,2.55-.59v-8.68c0-1.2.72-1.92,1.83-1.92s1.81.72,1.81,1.92v9.42c0,1.15-.24,1.67-1.33,2.23-.77.41-2.69,1.11-4.85,1.11-4.1,0-6.28-2.17-6.28-5.68Z"/><path class="cls-1" d="M56.2,35.13v1.32h3.32c1.2,0,1.83.65,1.83,1.67s-.63,1.65-1.83,1.65h-3.32v5.9c0,1.39.51,1.96,1.75,1.96.6,0,1.04-.13,1.37-.24.37-.12.69-.27,1.11-.27.81,0,1.48.67,1.48,1.59s-.56,1.44-1.39,1.76c-.76.28-1.79.53-2.81.53-3.04,0-5.13-1.68-5.13-4.96v-10.92c0-1.21.72-1.93,1.81-1.93s1.81.72,1.81,1.93Z"/><path class="cls-1" d="M63.99,45.5c-.09-1.03-.09-2.77,0-3.8.29-3.21,2.81-5.5,6.44-5.5s6.16,2.29,6.45,5.5c.09,1.03.09,2.77,0,3.8-.31,3.21-2.81,5.5-6.45,5.5s-6.13-2.29-6.44-5.5ZM70.43,47.51c1.64,0,2.7-1.05,2.85-2.61.08-.88.08-1.72,0-2.59-.13-1.56-1.21-2.63-2.85-2.63s-2.71,1.07-2.84,2.63c-.08.87-.08,1.71,0,2.59.13,1.56,1.21,2.61,2.84,2.61Z"/><path class="cls-1" d="M92.06,50.99c-2.01,0-3.63-.52-4.74-1.43-.44-.32-.56-.67-.56-.99,0-.44.35-.97.93-.97.29,0,.55.12.81.31.72.55,1.76,1.05,3.57,1.05,1.92,0,2.84-.89,2.84-2.15,0-.97-.59-1.59-2.11-1.93l-2.08-.51c-2.24-.52-3.6-1.73-3.6-3.72,0-2.52,2.01-4.1,4.88-4.1,1.85,0,3.21.64,3.92,1.17.43.32.59.59.59,1,0,.49-.37,1.04-.95,1.04-.33,0-.57-.12-.89-.33-.51-.39-1.47-.84-2.61-.84-1.83,0-2.83.72-2.83,2.01,0,.84.49,1.47,2.09,1.84l1.97.45c2.57.6,3.74,1.91,3.74,3.84,0,2.61-1.99,4.25-4.98,4.25Z"/><path class="cls-1" d="M100.39,45.62c-.09-1-.11-2.56-.01-3.54.31-3.23,2.64-5.48,6.01-5.48,3.57,0,5.7,2.36,5.7,5.7v.91c0,1.25-.21,1.45-1.39,1.45h-8.28c0,.28.01.55.04.81.17,2.09,1.71,3.49,4.08,3.49,1.23,0,2.24-.25,3.16-.64.39-.15.59-.27.91-.27.52,0,.89.36.91.92.01.56-.43.91-.91,1.13-1.13.55-2.52.88-4.09.88-3.48,0-5.81-2.19-6.13-5.37ZM110.03,42.92c.23-2.81-1.33-4.36-3.68-4.36s-3.71,1.48-3.88,3.65c-.01.23-.03.47-.04.71h7.6Z"/><path class="cls-1" d="M115.94,49.72v-8.84c0-2.72,1.61-4.33,4.34-4.33.95,0,1.69.12,2.21.28.64.19,1.05.53,1.05,1.12,0,.67-.48,1.04-.95,1.04-.23,0-.39-.04-.55-.08-.53-.15-1.03-.23-1.67-.23-1.55,0-2.31.76-2.31,2.28v8.76c0,.73-.4,1.15-1.08,1.15s-1.07-.41-1.07-1.15Z"/><path class="cls-1" d="M130.28,48.84l-3.98-10.54c-.09-.24-.13-.43-.13-.6,0-.61.49-1.03,1.08-1.03.51,0,.88.27,1.09.91l3.92,11.05c.07.17.11.24.21.24s.15-.07.23-.24l3.93-11.04c.24-.67.61-.92,1.11-.92.59,0,1.05.4,1.05,1,0,.17-.03.37-.12.61l-4.02,10.56c-.48,1.28-1.04,2.03-2.17,2.03s-1.72-.75-2.19-2.03Z"/><path class="cls-1" d="M144.67,33.06c0,.81-.6,1.43-1.41,1.43s-1.39-.61-1.39-1.43.6-1.4,1.39-1.4,1.41.6,1.41,1.4ZM142.19,37.82c0-.73.41-1.15,1.08-1.15s1.08.41,1.08,1.15v11.9c0,.73-.4,1.15-1.08,1.15s-1.08-.41-1.08-1.15v-11.9Z"/><path class="cls-1" d="M150.62,45.46c.19,2.04,1.53,3.43,3.85,3.43,1.6,0,2.8-.89,3.38-2.21.15-.24.36-.71,1-.72.6-.01,1.04.41,1.04,1.01,0,.32-.11.64-.33,1.12-.81,1.68-2.64,2.91-5.12,2.91-3.42,0-5.66-2.17-5.97-5.3-.11-1.04-.11-2.76,0-3.81.29-3.15,2.55-5.32,5.97-5.32,2.48,0,4.32,1.24,5.12,2.92.23.47.33.81.33,1.11,0,.6-.44,1.03-1.04,1.01-.61,0-.83-.44-1-.72-.68-1.41-1.77-2.2-3.38-2.2-2.29,0-3.66,1.37-3.85,3.41-.09,1.04-.09,2.33,0,3.37Z"/><path class="cls-1" d="M163.2,45.62c-.09-1-.11-2.56-.01-3.54.31-3.23,2.64-5.48,6.01-5.48,3.57,0,5.7,2.36,5.7,5.7v.91c0,1.25-.21,1.45-1.39,1.45h-8.28c0,.28.01.55.04.81.17,2.09,1.71,3.49,4.08,3.49,1.23,0,2.24-.25,3.16-.64.39-.15.59-.27.91-.27.52,0,.89.36.91.92.01.56-.43.91-.91,1.13-1.13.55-2.52.88-4.09.88-3.48,0-5.81-2.19-6.13-5.37ZM172.83,42.92c.23-2.81-1.33-4.36-3.68-4.36s-3.71,1.48-3.88,3.65c-.01.23-.03.47-.04.71h7.6Z"/><path class="cls-1" d="M8.77,25.15H0V.39h8.77"/><path class="cls-1" d="M38.68,0c7.52,0,13.69,5.09,13.69,12.84s-6.17,12.71-13.69,12.71-13.69-4.76-13.69-12.71S31.16,0,38.68,0ZM38.68,8.14c-2.86,0-4.63,2.2-4.63,4.83,0,2.86,1.87,4.76,4.63,4.76s4.63-1.9,4.63-4.76c0-2.63-1.77-4.83-4.63-4.83Z"/><path class="cls-1" d="M55.98.39h8.64l8.08,13.73h.26c-.36-2.1-.75-4.2-.75-6.3V.39h8.6v24.76h-8.6l-7.91-13h-.26c.3,1.71.56,3.28.56,4.96v8.04h-8.6V.39Z"/><path class="cls-1" d="M83.62.39h18.91v8.04l-4.96-.23v16.94h-9V8.21l-4.96.23V.39Z"/><path class="cls-1" d="M111.32,25.15h-9.52L110.4.39h9.95l8.83,24.76h-9.52l-.82-3.09h-6.8l-.72,3.09ZM117.27,16.19l-1.05-4.37c-.26-1.05-.43-2.13-.59-3.19h-.33l-1.64,7.55h3.61Z"/><path class="cls-1" d="M158.99.39h9v24.76h-9V.39Z"/><path class="cls-1" d="M174.2,16.29l.46.36c1.61,1.28,3.51,2.27,5.62,2.27.92,0,2.3-.36,2.3-1.48s-1.18-1.18-2-1.38l-1.81-.33c-3.55-.62-6.47-2.73-6.47-6.57,0-5.88,5.35-9.16,10.74-9.16,2.86,0,5.45.72,7.85,2.17l-2.43,6.34c-1.54-1.05-3.25-1.87-5.22-1.87-.79,0-1.94.3-1.94,1.31,0,.92,1.12,1.05,1.81,1.21l2.04.46c3.81.85,6.57,2.89,6.57,7.09,0,5.91-5.35,8.83-10.74,8.83-3.15,0-6.73-.85-9.52-2.27l2.76-6.99Z"/><polygon class="cls-2" points="14.35 .39 24.17 .39 16.42 12.45 24.99 25.15 14.55 25.15 6.82 12.45 14.35 .39"/><path class="cls-1" d="M140.36,25.15h-8.77V.39h8.77"/><polygon class="cls-2" points="145.94 .39 155.76 .39 148.01 12.45 156.58 25.15 146.14 25.15 138.42 12.45 145.94 .39"/></g></svg>